<mxfile host="app.diagrams.net" modified="2020-03-31T12:46:55.541Z" agent="5.0 (Windows NT 10.0; Win64; x64) AppleWebKit/537.36 (KHTML, like Gecko) Chrome/80.0.3987.149 Safari/537.36" etag="J2h7DppD8cqYdgJVigfy" version="12.9.4" type="github">
  <diagram id="G6aAyCiUhe-DF7zZhqXM" name="Page-1">
    <mxGraphModel dx="2031" dy="1089" grid="1" gridSize="10" guides="1" tooltips="1" connect="1" arrows="1" fold="1" page="1" pageScale="1" pageWidth="1654" pageHeight="1169" math="0" shadow="0">
      <root>
        <mxCell id="0" />
        <mxCell id="1" parent="0" />
        <mxCell id="WDJNQAaPPTsATFnZAzZO-1" value="" style="aspect=fixed;html=1;points=[];align=center;image;fontSize=12;image=img/lib/mscae/Docker.svg;" parent="1" vertex="1">
          <mxGeometry x="400" y="269.5" width="50" height="41" as="geometry" />
        </mxCell>
        <mxCell id="WDJNQAaPPTsATFnZAzZO-6" value="" style="group" parent="1" vertex="1" connectable="0">
          <mxGeometry x="380" y="340" width="140" height="180" as="geometry" />
        </mxCell>
        <mxCell id="WDJNQAaPPTsATFnZAzZO-3" value="" style="rounded=1;whiteSpace=wrap;html=1;" parent="WDJNQAaPPTsATFnZAzZO-6" vertex="1">
          <mxGeometry width="140" height="180" as="geometry" />
        </mxCell>
        <mxCell id="WDJNQAaPPTsATFnZAzZO-4" value="Container 1" style="text;html=1;strokeColor=none;fillColor=none;align=center;verticalAlign=middle;whiteSpace=wrap;rounded=0;fontStyle=1;fontSize=13;" parent="WDJNQAaPPTsATFnZAzZO-6" vertex="1">
          <mxGeometry x="30" y="10" width="80" height="20" as="geometry" />
        </mxCell>
        <mxCell id="WDJNQAaPPTsATFnZAzZO-5" value="PostgreSQL -&lt;br&gt;Master SQL Server" style="text;html=1;strokeColor=none;fillColor=none;align=center;verticalAlign=middle;whiteSpace=wrap;rounded=0;fontSize=13;" parent="WDJNQAaPPTsATFnZAzZO-6" vertex="1">
          <mxGeometry x="10" y="60" width="120" height="100" as="geometry" />
        </mxCell>
        <mxCell id="WDJNQAaPPTsATFnZAzZO-7" value="" style="group" parent="1" vertex="1" connectable="0">
          <mxGeometry x="680" y="340" width="140" height="180" as="geometry" />
        </mxCell>
        <mxCell id="WDJNQAaPPTsATFnZAzZO-8" value="" style="rounded=1;whiteSpace=wrap;html=1;" parent="WDJNQAaPPTsATFnZAzZO-7" vertex="1">
          <mxGeometry width="140" height="180" as="geometry" />
        </mxCell>
        <mxCell id="WDJNQAaPPTsATFnZAzZO-9" value="Container 3" style="text;html=1;strokeColor=none;fillColor=none;align=center;verticalAlign=middle;whiteSpace=wrap;rounded=0;fontStyle=1;fontSize=13;" parent="WDJNQAaPPTsATFnZAzZO-7" vertex="1">
          <mxGeometry x="30" y="10" width="80" height="20" as="geometry" />
        </mxCell>
        <mxCell id="WDJNQAaPPTsATFnZAzZO-10" value="Client Authorization&amp;nbsp;&amp;nbsp;" style="text;html=1;strokeColor=none;fillColor=none;align=center;verticalAlign=middle;whiteSpace=wrap;rounded=0;fontSize=13;" parent="WDJNQAaPPTsATFnZAzZO-7" vertex="1">
          <mxGeometry x="10" y="60" width="120" height="100" as="geometry" />
        </mxCell>
        <mxCell id="WDJNQAaPPTsATFnZAzZO-11" value="" style="group" parent="1" vertex="1" connectable="0">
          <mxGeometry x="530" y="340" width="140" height="180" as="geometry" />
        </mxCell>
        <mxCell id="WDJNQAaPPTsATFnZAzZO-12" value="" style="rounded=1;whiteSpace=wrap;html=1;" parent="WDJNQAaPPTsATFnZAzZO-11" vertex="1">
          <mxGeometry width="140" height="180" as="geometry" />
        </mxCell>
        <mxCell id="WDJNQAaPPTsATFnZAzZO-13" value="Container 2" style="text;html=1;strokeColor=none;fillColor=none;align=center;verticalAlign=middle;whiteSpace=wrap;rounded=0;fontStyle=1;fontSize=13;" parent="WDJNQAaPPTsATFnZAzZO-11" vertex="1">
          <mxGeometry x="30" y="10" width="80" height="20" as="geometry" />
        </mxCell>
        <mxCell id="WDJNQAaPPTsATFnZAzZO-14" value="Proxy/Connection distribution Server" style="text;html=1;strokeColor=none;fillColor=none;align=center;verticalAlign=middle;whiteSpace=wrap;rounded=0;fontSize=13;" parent="WDJNQAaPPTsATFnZAzZO-11" vertex="1">
          <mxGeometry x="10" y="60" width="120" height="100" as="geometry" />
        </mxCell>
        <mxCell id="WDJNQAaPPTsATFnZAzZO-15" value="" style="group" parent="1" vertex="1" connectable="0">
          <mxGeometry x="840" y="340" width="140" height="180" as="geometry" />
        </mxCell>
        <mxCell id="WDJNQAaPPTsATFnZAzZO-16" value="" style="rounded=1;whiteSpace=wrap;html=1;" parent="WDJNQAaPPTsATFnZAzZO-15" vertex="1">
          <mxGeometry width="140" height="180" as="geometry" />
        </mxCell>
        <mxCell id="WDJNQAaPPTsATFnZAzZO-17" value="Container 4" style="text;html=1;strokeColor=none;fillColor=none;align=center;verticalAlign=middle;whiteSpace=wrap;rounded=0;fontStyle=1;fontSize=13;" parent="WDJNQAaPPTsATFnZAzZO-15" vertex="1">
          <mxGeometry x="30" y="10" width="80" height="20" as="geometry" />
        </mxCell>
        <mxCell id="WDJNQAaPPTsATFnZAzZO-18" value="Lobbies and Client idle host" style="text;html=1;strokeColor=none;fillColor=none;align=center;verticalAlign=middle;whiteSpace=wrap;rounded=0;fontSize=13;" parent="WDJNQAaPPTsATFnZAzZO-15" vertex="1">
          <mxGeometry x="10" y="60" width="120" height="100" as="geometry" />
        </mxCell>
        <mxCell id="WDJNQAaPPTsATFnZAzZO-19" value="" style="group" parent="1" vertex="1" connectable="0">
          <mxGeometry x="990" y="340" width="140" height="180" as="geometry" />
        </mxCell>
        <mxCell id="WDJNQAaPPTsATFnZAzZO-20" value="" style="rounded=1;whiteSpace=wrap;html=1;" parent="WDJNQAaPPTsATFnZAzZO-19" vertex="1">
          <mxGeometry width="140" height="180" as="geometry" />
        </mxCell>
        <mxCell id="WDJNQAaPPTsATFnZAzZO-21" value="Container 5" style="text;html=1;strokeColor=none;fillColor=none;align=center;verticalAlign=middle;whiteSpace=wrap;rounded=0;fontStyle=1;fontSize=13;" parent="WDJNQAaPPTsATFnZAzZO-19" vertex="1">
          <mxGeometry x="30" y="10" width="80" height="20" as="geometry" />
        </mxCell>
        <mxCell id="WDJNQAaPPTsATFnZAzZO-22" value="Lobby Server" style="text;html=1;strokeColor=none;fillColor=none;align=center;verticalAlign=middle;whiteSpace=wrap;rounded=0;fontSize=13;" parent="WDJNQAaPPTsATFnZAzZO-19" vertex="1">
          <mxGeometry x="10" y="60" width="120" height="100" as="geometry" />
        </mxCell>
        <mxCell id="WDJNQAaPPTsATFnZAzZO-23" value="" style="group" parent="1" vertex="1" connectable="0">
          <mxGeometry x="1140" y="340" width="140" height="180" as="geometry" />
        </mxCell>
        <mxCell id="WDJNQAaPPTsATFnZAzZO-24" value="" style="rounded=1;whiteSpace=wrap;html=1;" parent="WDJNQAaPPTsATFnZAzZO-23" vertex="1">
          <mxGeometry width="140" height="180" as="geometry" />
        </mxCell>
        <mxCell id="WDJNQAaPPTsATFnZAzZO-25" value="Container 5" style="text;html=1;strokeColor=none;fillColor=none;align=center;verticalAlign=middle;whiteSpace=wrap;rounded=0;fontStyle=1;fontSize=13;" parent="WDJNQAaPPTsATFnZAzZO-23" vertex="1">
          <mxGeometry x="30" y="10" width="80" height="20" as="geometry" />
        </mxCell>
        <mxCell id="WDJNQAaPPTsATFnZAzZO-26" value="Game Module Server" style="text;html=1;strokeColor=none;fillColor=none;align=center;verticalAlign=middle;whiteSpace=wrap;rounded=0;fontSize=13;" parent="WDJNQAaPPTsATFnZAzZO-23" vertex="1">
          <mxGeometry x="10" y="60" width="120" height="100" as="geometry" />
        </mxCell>
        <mxCell id="WDJNQAaPPTsATFnZAzZO-27" value="" style="shape=umlActor;verticalLabelPosition=bottom;labelBackgroundColor=#ffffff;verticalAlign=top;html=1;outlineConnect=0;fontSize=13;" parent="1" vertex="1">
          <mxGeometry x="570" y="650" width="30" height="60" as="geometry" />
        </mxCell>
        <mxCell id="WDJNQAaPPTsATFnZAzZO-28" value="" style="shape=umlActor;verticalLabelPosition=bottom;labelBackgroundColor=#ffffff;verticalAlign=top;html=1;outlineConnect=0;fontSize=13;" parent="1" vertex="1">
          <mxGeometry x="610" y="650" width="30" height="60" as="geometry" />
        </mxCell>
        <mxCell id="WDJNQAaPPTsATFnZAzZO-29" value="" style="shape=umlActor;verticalLabelPosition=bottom;labelBackgroundColor=#ffffff;verticalAlign=top;html=1;outlineConnect=0;fontSize=13;" parent="1" vertex="1">
          <mxGeometry x="590" y="690" width="30" height="60" as="geometry" />
        </mxCell>
        <mxCell id="WDJNQAaPPTsATFnZAzZO-30" value="&lt;b&gt;Clients&lt;/b&gt;" style="text;html=1;strokeColor=none;fillColor=none;align=center;verticalAlign=middle;whiteSpace=wrap;rounded=0;fontSize=13;" parent="1" vertex="1">
          <mxGeometry x="560" y="760" width="80" height="20" as="geometry" />
        </mxCell>
        <mxCell id="WDJNQAaPPTsATFnZAzZO-33" value="" style="rounded=1;whiteSpace=wrap;html=1;arcSize=3;" parent="1" vertex="1">
          <mxGeometry x="360" y="220" width="960" height="350" as="geometry" />
        </mxCell>
        <mxCell id="WDJNQAaPPTsATFnZAzZO-70" value="" style="group" parent="1" vertex="1" connectable="0">
          <mxGeometry x="600" y="530" width="10" height="120" as="geometry" />
        </mxCell>
        <mxCell id="WDJNQAaPPTsATFnZAzZO-67" value="" style="endArrow=classic;html=1;fontSize=13;endFill=1;" parent="WDJNQAaPPTsATFnZAzZO-70" edge="1">
          <mxGeometry width="50" height="50" relative="1" as="geometry">
            <mxPoint y="120" as="sourcePoint" />
            <mxPoint as="targetPoint" />
          </mxGeometry>
        </mxCell>
        <mxCell id="WDJNQAaPPTsATFnZAzZO-68" value="" style="endArrow=none;html=1;fontSize=13;startArrow=classic;startFill=1;" parent="WDJNQAaPPTsATFnZAzZO-70" edge="1">
          <mxGeometry width="50" height="50" relative="1" as="geometry">
            <mxPoint x="10" y="120" as="sourcePoint" />
            <mxPoint x="10" as="targetPoint" />
          </mxGeometry>
        </mxCell>
        <mxCell id="WDJNQAaPPTsATFnZAzZO-73" style="edgeStyle=orthogonalEdgeStyle;rounded=0;orthogonalLoop=1;jettySize=auto;html=1;exitX=0.5;exitY=0;exitDx=0;exitDy=0;entryX=0.5;entryY=0;entryDx=0;entryDy=0;startArrow=classic;startFill=1;endArrow=classic;endFill=1;fontSize=13;fillColor=#ffe6cc;strokeColor=#d79b00;" parent="1" source="WDJNQAaPPTsATFnZAzZO-44" target="WDJNQAaPPTsATFnZAzZO-40" edge="1">
          <mxGeometry relative="1" as="geometry" />
        </mxCell>
        <mxCell id="WDJNQAaPPTsATFnZAzZO-75" style="edgeStyle=orthogonalEdgeStyle;rounded=0;orthogonalLoop=1;jettySize=auto;html=1;exitX=0.5;exitY=0;exitDx=0;exitDy=0;entryX=0.5;entryY=0;entryDx=0;entryDy=0;startArrow=classic;startFill=1;endArrow=classic;endFill=1;fontSize=13;fillColor=#ffe6cc;strokeColor=#d79b00;" parent="1" source="WDJNQAaPPTsATFnZAzZO-48" target="WDJNQAaPPTsATFnZAzZO-44" edge="1">
          <mxGeometry relative="1" as="geometry" />
        </mxCell>
        <mxCell id="WDJNQAaPPTsATFnZAzZO-77" style="edgeStyle=orthogonalEdgeStyle;rounded=0;orthogonalLoop=1;jettySize=auto;html=1;exitX=0.5;exitY=0;exitDx=0;exitDy=0;startArrow=classic;startFill=1;endArrow=classic;endFill=1;fontSize=13;entryX=0.5;entryY=0;entryDx=0;entryDy=0;fillColor=#ffe6cc;strokeColor=#d79b00;" parent="1" source="WDJNQAaPPTsATFnZAzZO-52" target="WDJNQAaPPTsATFnZAzZO-44" edge="1">
          <mxGeometry relative="1" as="geometry">
            <mxPoint x="950" y="140" as="targetPoint" />
          </mxGeometry>
        </mxCell>
        <mxCell id="WDJNQAaPPTsATFnZAzZO-78" style="edgeStyle=orthogonalEdgeStyle;rounded=0;orthogonalLoop=1;jettySize=auto;html=1;exitX=0.5;exitY=0;exitDx=0;exitDy=0;startArrow=classic;startFill=1;endArrow=classic;endFill=1;fontSize=13;entryX=0.5;entryY=0;entryDx=0;entryDy=0;fillColor=#ffe6cc;strokeColor=#d79b00;" parent="1" source="WDJNQAaPPTsATFnZAzZO-56" target="WDJNQAaPPTsATFnZAzZO-44" edge="1">
          <mxGeometry relative="1" as="geometry">
            <mxPoint x="870" y="88.62068965517236" as="targetPoint" />
          </mxGeometry>
        </mxCell>
        <mxCell id="WDJNQAaPPTsATFnZAzZO-79" value="Docker - Main -&lt;br&gt;Bridge Network" style="text;html=1;strokeColor=#d79b00;fillColor=#ffe6cc;align=center;verticalAlign=middle;whiteSpace=wrap;rounded=0;fontSize=13;" parent="1" vertex="1">
          <mxGeometry x="650" y="280" width="120" height="30.5" as="geometry" />
        </mxCell>
        <mxCell id="WDJNQAaPPTsATFnZAzZO-80" value="Exposted Port To The Internet" style="text;html=1;strokeColor=none;fillColor=none;align=center;verticalAlign=middle;whiteSpace=wrap;rounded=0;fontSize=13;" parent="1" vertex="1">
          <mxGeometry x="610" y="590" width="120" height="30" as="geometry" />
        </mxCell>
        <mxCell id="WDJNQAaPPTsATFnZAzZO-87" style="edgeStyle=orthogonalEdgeStyle;rounded=0;orthogonalLoop=1;jettySize=auto;html=1;exitX=0.75;exitY=0;exitDx=0;exitDy=0;entryX=0.25;entryY=0;entryDx=0;entryDy=0;startArrow=none;startFill=0;endArrow=classic;endFill=1;fontSize=13;fillColor=#f8cecc;strokeColor=#b85450;" parent="1" source="WDJNQAaPPTsATFnZAzZO-36" target="WDJNQAaPPTsATFnZAzZO-44" edge="1">
          <mxGeometry relative="1" as="geometry" />
        </mxCell>
        <mxCell id="WDJNQAaPPTsATFnZAzZO-88" style="edgeStyle=orthogonalEdgeStyle;rounded=0;orthogonalLoop=1;jettySize=auto;html=1;exitX=0.5;exitY=0;exitDx=0;exitDy=0;entryX=0.75;entryY=0;entryDx=0;entryDy=0;startArrow=classic;startFill=1;endArrow=classic;endFill=1;fontSize=13;fillColor=#f8cecc;strokeColor=#b85450;" parent="1" source="WDJNQAaPPTsATFnZAzZO-36" target="WDJNQAaPPTsATFnZAzZO-56" edge="1">
          <mxGeometry relative="1" as="geometry">
            <Array as="points">
              <mxPoint x="450" y="270" />
              <mxPoint x="1235" y="270" />
            </Array>
          </mxGeometry>
        </mxCell>
        <mxCell id="WDJNQAaPPTsATFnZAzZO-90" style="edgeStyle=orthogonalEdgeStyle;rounded=0;orthogonalLoop=1;jettySize=auto;html=1;exitX=0.75;exitY=0;exitDx=0;exitDy=0;startArrow=classic;startFill=1;endArrow=classic;endFill=1;fontSize=13;entryX=0.5;entryY=0;entryDx=0;entryDy=0;fillColor=#f8cecc;strokeColor=#b85450;" parent="1" source="WDJNQAaPPTsATFnZAzZO-52" target="WDJNQAaPPTsATFnZAzZO-36" edge="1">
          <mxGeometry relative="1" as="geometry">
            <mxPoint x="850" y="70" as="targetPoint" />
            <Array as="points">
              <mxPoint x="1085" y="270" />
              <mxPoint x="450" y="270" />
            </Array>
          </mxGeometry>
        </mxCell>
        <mxCell id="WDJNQAaPPTsATFnZAzZO-91" style="edgeStyle=orthogonalEdgeStyle;rounded=0;orthogonalLoop=1;jettySize=auto;html=1;exitX=0.75;exitY=0;exitDx=0;exitDy=0;entryX=0.5;entryY=0;entryDx=0;entryDy=0;startArrow=classic;startFill=1;endArrow=classic;endFill=1;fontSize=13;fillColor=#f8cecc;strokeColor=#b85450;" parent="1" source="WDJNQAaPPTsATFnZAzZO-48" target="WDJNQAaPPTsATFnZAzZO-36" edge="1">
          <mxGeometry relative="1" as="geometry">
            <Array as="points">
              <mxPoint x="935" y="270" />
              <mxPoint x="450" y="270" />
            </Array>
          </mxGeometry>
        </mxCell>
        <mxCell id="WDJNQAaPPTsATFnZAzZO-92" style="edgeStyle=orthogonalEdgeStyle;rounded=0;orthogonalLoop=1;jettySize=auto;html=1;exitX=0.75;exitY=0;exitDx=0;exitDy=0;entryX=0.5;entryY=0;entryDx=0;entryDy=0;startArrow=classic;startFill=1;endArrow=classic;endFill=1;fontSize=13;fillColor=#f8cecc;strokeColor=#b85450;" parent="1" source="WDJNQAaPPTsATFnZAzZO-40" target="WDJNQAaPPTsATFnZAzZO-36" edge="1">
          <mxGeometry relative="1" as="geometry">
            <Array as="points">
              <mxPoint x="785" y="270" />
              <mxPoint x="450" y="270" />
            </Array>
          </mxGeometry>
        </mxCell>
        <mxCell id="WDJNQAaPPTsATFnZAzZO-94" value="Docker - SQL -&lt;br&gt;Bridge Network" style="text;html=1;strokeColor=#b85450;fillColor=#f8cecc;align=center;verticalAlign=middle;whiteSpace=wrap;rounded=0;fontSize=13;" parent="1" vertex="1">
          <mxGeometry x="650" y="230" width="120" height="30.5" as="geometry" />
        </mxCell>
        <mxCell id="WDJNQAaPPTsATFnZAzZO-32" value="Untitled Layer" parent="0" />
        <mxCell id="WDJNQAaPPTsATFnZAzZO-34" value="" style="aspect=fixed;html=1;points=[];align=center;image;fontSize=12;image=img/lib/mscae/Docker.svg;" parent="WDJNQAaPPTsATFnZAzZO-32" vertex="1">
          <mxGeometry x="380" y="250" width="50" height="41" as="geometry" />
        </mxCell>
        <mxCell id="WDJNQAaPPTsATFnZAzZO-35" value="" style="group" parent="WDJNQAaPPTsATFnZAzZO-32" vertex="1" connectable="0">
          <mxGeometry x="380" y="340" width="180" height="180" as="geometry" />
        </mxCell>
        <mxCell id="WDJNQAaPPTsATFnZAzZO-36" value="" style="rounded=1;whiteSpace=wrap;html=1;" parent="WDJNQAaPPTsATFnZAzZO-35" vertex="1">
          <mxGeometry width="140" height="180" as="geometry" />
        </mxCell>
        <mxCell id="WDJNQAaPPTsATFnZAzZO-37" value="Container 1" style="text;html=1;strokeColor=none;fillColor=none;align=center;verticalAlign=middle;whiteSpace=wrap;rounded=0;fontStyle=1;fontSize=13;" parent="WDJNQAaPPTsATFnZAzZO-35" vertex="1">
          <mxGeometry x="30" y="10" width="80" height="20" as="geometry" />
        </mxCell>
        <mxCell id="WDJNQAaPPTsATFnZAzZO-38" value="PostgreSQL -&lt;br&gt;Master SQL Server" style="text;html=1;strokeColor=none;fillColor=none;align=center;verticalAlign=middle;whiteSpace=wrap;rounded=0;fontSize=13;" parent="WDJNQAaPPTsATFnZAzZO-35" vertex="1">
          <mxGeometry x="10" y="50" width="120" height="40" as="geometry" />
        </mxCell>
        <mxCell id="urJCP8OpHEJr19VCwwud-1" value="Database used to store the clients current state through out all the&amp;nbsp;containers" style="text;html=1;fontSize=9;align=center;fontColor=#999999;whiteSpace=wrap;" vertex="1" parent="WDJNQAaPPTsATFnZAzZO-35">
          <mxGeometry x="10" y="100" width="120" height="50" as="geometry" />
        </mxCell>
        <mxCell id="WDJNQAaPPTsATFnZAzZO-39" value="" style="group" parent="WDJNQAaPPTsATFnZAzZO-32" vertex="1" connectable="0">
          <mxGeometry x="680" y="340" width="140" height="180" as="geometry" />
        </mxCell>
        <mxCell id="WDJNQAaPPTsATFnZAzZO-40" value="" style="rounded=1;whiteSpace=wrap;html=1;" parent="WDJNQAaPPTsATFnZAzZO-39" vertex="1">
          <mxGeometry width="140" height="180" as="geometry" />
        </mxCell>
        <mxCell id="WDJNQAaPPTsATFnZAzZO-41" value="Container 3" style="text;html=1;strokeColor=none;fillColor=none;align=center;verticalAlign=middle;whiteSpace=wrap;rounded=0;fontStyle=1;fontSize=13;" parent="WDJNQAaPPTsATFnZAzZO-39" vertex="1">
          <mxGeometry x="30" y="10" width="80" height="20" as="geometry" />
        </mxCell>
        <mxCell id="WDJNQAaPPTsATFnZAzZO-42" value="Client Authorization&amp;nbsp;&amp;nbsp;" style="text;html=1;strokeColor=none;fillColor=none;align=center;verticalAlign=middle;whiteSpace=wrap;rounded=0;fontSize=13;" parent="WDJNQAaPPTsATFnZAzZO-39" vertex="1">
          <mxGeometry x="7" y="40" width="120" height="40" as="geometry" />
        </mxCell>
        <mxCell id="urJCP8OpHEJr19VCwwud-8" value="Authorize the client, to enable us to track the clients status as they move among containers" style="text;html=1;fontSize=9;align=center;fontColor=#999999;whiteSpace=wrap;" vertex="1" parent="WDJNQAaPPTsATFnZAzZO-39">
          <mxGeometry x="10" y="100" width="120" height="50" as="geometry" />
        </mxCell>
        <mxCell id="WDJNQAaPPTsATFnZAzZO-43" value="" style="group" parent="WDJNQAaPPTsATFnZAzZO-32" vertex="1" connectable="0">
          <mxGeometry x="530" y="340" width="140" height="180" as="geometry" />
        </mxCell>
        <mxCell id="WDJNQAaPPTsATFnZAzZO-44" value="" style="rounded=1;whiteSpace=wrap;html=1;" parent="WDJNQAaPPTsATFnZAzZO-43" vertex="1">
          <mxGeometry width="140" height="180" as="geometry" />
        </mxCell>
        <mxCell id="WDJNQAaPPTsATFnZAzZO-45" value="Container 2" style="text;html=1;strokeColor=none;fillColor=none;align=center;verticalAlign=middle;whiteSpace=wrap;rounded=0;fontStyle=1;fontSize=13;" parent="WDJNQAaPPTsATFnZAzZO-43" vertex="1">
          <mxGeometry x="30" y="10" width="80" height="20" as="geometry" />
        </mxCell>
        <mxCell id="WDJNQAaPPTsATFnZAzZO-46" value="Proxy/Connection distribution" style="text;html=1;strokeColor=none;fillColor=none;align=center;verticalAlign=middle;whiteSpace=wrap;rounded=0;fontSize=13;" parent="WDJNQAaPPTsATFnZAzZO-43" vertex="1">
          <mxGeometry x="10" y="40" width="120" height="40" as="geometry" />
        </mxCell>
        <mxCell id="urJCP8OpHEJr19VCwwud-2" value="Proxy used to redistribute clients connections to correct lobby and game instance, selected by the client" style="text;html=1;fontSize=9;align=center;fontColor=#999999;whiteSpace=wrap;" vertex="1" parent="WDJNQAaPPTsATFnZAzZO-43">
          <mxGeometry x="10" y="100" width="120" height="50" as="geometry" />
        </mxCell>
        <mxCell id="WDJNQAaPPTsATFnZAzZO-47" value="" style="group" parent="WDJNQAaPPTsATFnZAzZO-32" vertex="1" connectable="0">
          <mxGeometry x="830" y="340" width="140" height="180" as="geometry" />
        </mxCell>
        <mxCell id="WDJNQAaPPTsATFnZAzZO-48" value="" style="rounded=1;whiteSpace=wrap;html=1;" parent="WDJNQAaPPTsATFnZAzZO-47" vertex="1">
          <mxGeometry width="140" height="180" as="geometry" />
        </mxCell>
        <mxCell id="WDJNQAaPPTsATFnZAzZO-49" value="Container 4" style="text;html=1;strokeColor=none;fillColor=none;align=center;verticalAlign=middle;whiteSpace=wrap;rounded=0;fontStyle=1;fontSize=13;" parent="WDJNQAaPPTsATFnZAzZO-47" vertex="1">
          <mxGeometry x="30" y="10" width="80" height="20" as="geometry" />
        </mxCell>
        <mxCell id="WDJNQAaPPTsATFnZAzZO-50" value="Lobbies and Client idle Host" style="text;html=1;strokeColor=none;fillColor=none;align=center;verticalAlign=middle;whiteSpace=wrap;rounded=0;fontSize=13;" parent="WDJNQAaPPTsATFnZAzZO-47" vertex="1">
          <mxGeometry x="10" y="40" width="120" height="40" as="geometry" />
        </mxCell>
        <mxCell id="urJCP8OpHEJr19VCwwud-9" value="Pings the client with a list of games available to join.&lt;br&gt;" style="text;html=1;fontSize=9;align=center;fontColor=#999999;whiteSpace=wrap;" vertex="1" parent="WDJNQAaPPTsATFnZAzZO-47">
          <mxGeometry x="10" y="100" width="120" height="50" as="geometry" />
        </mxCell>
        <mxCell id="WDJNQAaPPTsATFnZAzZO-51" value="" style="group" parent="WDJNQAaPPTsATFnZAzZO-32" vertex="1" connectable="0">
          <mxGeometry x="980" y="340" width="140" height="180" as="geometry" />
        </mxCell>
        <mxCell id="WDJNQAaPPTsATFnZAzZO-52" value="" style="rounded=1;whiteSpace=wrap;html=1;" parent="WDJNQAaPPTsATFnZAzZO-51" vertex="1">
          <mxGeometry width="140" height="180" as="geometry" />
        </mxCell>
        <mxCell id="WDJNQAaPPTsATFnZAzZO-53" value="Container 5" style="text;html=1;strokeColor=none;fillColor=none;align=center;verticalAlign=middle;whiteSpace=wrap;rounded=0;fontStyle=1;fontSize=13;" parent="WDJNQAaPPTsATFnZAzZO-51" vertex="1">
          <mxGeometry x="30" y="10" width="80" height="20" as="geometry" />
        </mxCell>
        <mxCell id="WDJNQAaPPTsATFnZAzZO-54" value="Lobby Host" style="text;html=1;strokeColor=none;fillColor=none;align=center;verticalAlign=middle;whiteSpace=wrap;rounded=0;fontSize=13;" parent="WDJNQAaPPTsATFnZAzZO-51" vertex="1">
          <mxGeometry x="10" y="40" width="120" height="40" as="geometry" />
        </mxCell>
        <mxCell id="urJCP8OpHEJr19VCwwud-10" value="Group of clients waiting to start a game.&lt;br&gt;Allows all clients in lobby to communicate and modify upcoming game settings" style="text;html=1;fontSize=9;align=center;fontColor=#999999;whiteSpace=wrap;" vertex="1" parent="WDJNQAaPPTsATFnZAzZO-51">
          <mxGeometry x="10" y="100" width="120" height="60" as="geometry" />
        </mxCell>
        <mxCell id="WDJNQAaPPTsATFnZAzZO-55" value="" style="group" parent="WDJNQAaPPTsATFnZAzZO-32" vertex="1" connectable="0">
          <mxGeometry x="1130" y="340" width="140" height="180" as="geometry" />
        </mxCell>
        <mxCell id="WDJNQAaPPTsATFnZAzZO-56" value="" style="rounded=1;whiteSpace=wrap;html=1;" parent="WDJNQAaPPTsATFnZAzZO-55" vertex="1">
          <mxGeometry width="140" height="180" as="geometry" />
        </mxCell>
        <mxCell id="WDJNQAaPPTsATFnZAzZO-57" value="Container 6" style="text;html=1;strokeColor=none;fillColor=none;align=center;verticalAlign=middle;whiteSpace=wrap;rounded=0;fontStyle=1;fontSize=13;" parent="WDJNQAaPPTsATFnZAzZO-55" vertex="1">
          <mxGeometry x="30" y="10" width="80" height="20" as="geometry" />
        </mxCell>
        <mxCell id="WDJNQAaPPTsATFnZAzZO-58" value="Game Module Host" style="text;html=1;strokeColor=none;fillColor=none;align=center;verticalAlign=middle;whiteSpace=wrap;rounded=0;fontSize=13;" parent="WDJNQAaPPTsATFnZAzZO-55" vertex="1">
          <mxGeometry x="10" y="40" width="120" height="40" as="geometry" />
        </mxCell>
        <mxCell id="urJCP8OpHEJr19VCwwud-16" value="An individual game instance,&lt;br&gt;Each game instance&amp;nbsp;" style="text;html=1;fontSize=9;align=center;fontColor=#999999;whiteSpace=wrap;" vertex="1" parent="WDJNQAaPPTsATFnZAzZO-55">
          <mxGeometry x="10" y="100" width="120" height="60" as="geometry" />
        </mxCell>
        <mxCell id="WDJNQAaPPTsATFnZAzZO-59" value="" style="shape=umlActor;verticalLabelPosition=bottom;labelBackgroundColor=#ffffff;verticalAlign=top;html=1;outlineConnect=0;fontSize=13;" parent="WDJNQAaPPTsATFnZAzZO-32" vertex="1">
          <mxGeometry x="570" y="650" width="30" height="60" as="geometry" />
        </mxCell>
        <mxCell id="WDJNQAaPPTsATFnZAzZO-60" value="" style="shape=umlActor;verticalLabelPosition=bottom;labelBackgroundColor=#ffffff;verticalAlign=top;html=1;outlineConnect=0;fontSize=13;" parent="WDJNQAaPPTsATFnZAzZO-32" vertex="1">
          <mxGeometry x="610" y="650" width="30" height="60" as="geometry" />
        </mxCell>
        <mxCell id="WDJNQAaPPTsATFnZAzZO-61" value="" style="shape=umlActor;verticalLabelPosition=bottom;labelBackgroundColor=#ffffff;verticalAlign=top;html=1;outlineConnect=0;fontSize=13;" parent="WDJNQAaPPTsATFnZAzZO-32" vertex="1">
          <mxGeometry x="590" y="690" width="30" height="60" as="geometry" />
        </mxCell>
        <mxCell id="WDJNQAaPPTsATFnZAzZO-62" value="&lt;b&gt;Clients&lt;/b&gt;" style="text;html=1;strokeColor=none;fillColor=none;align=center;verticalAlign=middle;whiteSpace=wrap;rounded=0;fontSize=13;" parent="WDJNQAaPPTsATFnZAzZO-32" vertex="1">
          <mxGeometry x="560" y="760" width="80" height="20" as="geometry" />
        </mxCell>
      </root>
    </mxGraphModel>
  </diagram>
</mxfile>
